<svg width="245" height="43" viewBox="0 0 245 43" version="2.0" xmlns="http://www.w3.org/2000/svg" xmlns:xlink="http://www.w3.org/1999/xlink" xmlns:figma="http://www.figma.com/figma/ns">
<title>Group</title>
<desc>Created using Figma (9000)</desc>
<g id="Canvas" transform="matrix(0.25 0 0 0.25 -417.25 -356.75)" figma:type="canvas">
<g id="Group" style="mix-blend-mode:normal;" figma:type="group">
<g id="GLASSY" style="mix-blend-mode:normal;" figma:type="vector">
<use xlink:href="#path0_fill" transform="translate(2005.2 1430.02)" fill="url(#paint0_linear)" style="mix-blend-mode:normal;"/>
</g>
<g id="GLASSY" style="mix-blend-mode:normal;" figma:type="vector">
<use xlink:href="#path1_fill" transform="translate(1669.2 1427.14)" fill="url(#paint1_linear)" style="mix-blend-mode:normal;"/>
</g>
<g id="GLASSY" style="mix-blend-mode:normal;" figma:type="vector">
<use xlink:href="#path2_fill" transform="translate(1869.84 1430.02)" fill="url(#paint2_linear)" style="mix-blend-mode:normal;"/>
</g>
<g id="GLASSY" style="mix-blend-mode:normal;" figma:type="vector">
<use xlink:href="#path3_fill" transform="translate(2185.68 1427.14)" fill="url(#paint3_linear)" style="mix-blend-mode:normal;"/>
</g>
<g id="GLASSY" style="mix-blend-mode:normal;" figma:type="vector">
<use xlink:href="#path3_fill" transform="translate(2354.88 1427.14)" fill="url(#paint4_linear)" style="mix-blend-mode:normal;"/>
</g>
<g id="GLASSY" style="mix-blend-mode:normal;" figma:type="vector">
<use xlink:href="#path4_fill" transform="translate(2519.28 1430.02)" fill="url(#paint5_linear)" style="mix-blend-mode:normal;"/>
</g>
</g>
</g>
<defs>
<linearGradient id="paint0_linear" x1="0" y1="0" x2="1" y2="0" gradientUnits="userSpaceOnUse" gradientTransform="matrix(134.64 165.36 -134.64 109.627 67.32 -54.8135)">
<stop offset="0" stop-color="#FFFFFF"/>
<stop offset="1" stop-color="#FFFFFF" stop-opacity="0"/>
</linearGradient>
<linearGradient id="paint1_linear" x1="0" y1="0" x2="1" y2="0" gradientUnits="userSpaceOnUse" gradientTransform="matrix(123.36 171.12 -123.36 88.9299 61.68 -44.465)">
<stop offset="0" stop-color="#FFFFFF"/>
<stop offset="1" stop-color="#FFFFFF" stop-opacity="0"/>
</linearGradient>
<linearGradient id="paint2_linear" x1="0" y1="0" x2="1" y2="0" gradientUnits="userSpaceOnUse" gradientTransform="matrix(-90.72 -165.36 90.72 -49.7709 45.36 190.245)">
<stop offset="0" stop-color="#FFFFFF"/>
<stop offset="1" stop-color="#FFFFFF" stop-opacity="0"/>
</linearGradient>
<linearGradient id="paint3_linear" x1="0" y1="0" x2="1" y2="0" gradientUnits="userSpaceOnUse" gradientTransform="matrix(-115.2 -171.12 115.2 -77.554 57.6 209.897)">
<stop offset="0" stop-color="#FFFFFF"/>
<stop offset="1" stop-color="#FFFFFF" stop-opacity="0"/>
</linearGradient>
<linearGradient id="paint4_linear" x1="0" y1="0" x2="1" y2="0" gradientUnits="userSpaceOnUse" gradientTransform="matrix(115.2 171.12 -115.2 77.554 57.6 -38.777)">
<stop offset="0" stop-color="#FFFFFF"/>
<stop offset="1" stop-color="#FFFFFF" stop-opacity="0"/>
</linearGradient>
<linearGradient id="paint5_linear" x1="0" y1="0" x2="1" y2="0" gradientUnits="userSpaceOnUse" gradientTransform="matrix(-129.6 -165.36 129.6 -101.573 64.8 216.147)">
<stop offset="0" stop-color="#FFFFFF"/>
<stop offset="1" stop-color="#FFFFFF" stop-opacity="0"/>
</linearGradient>
<path id="path0_fill" d="
M 98.16 123.84
L 35.52 123.84
L 23.04 165.36
L 0 165.36
L 53.04 0
L 81.84 0
L 134.64 165.36
L 110.64 165.36
L 98.16 123.84
Z
M 92.64 105.36
L 66.96 18.96
L 41.04 105.36
L 92.64 105.36
Z"/>
<path id="path1_fill" d="
M 71.28 0
C 82 0 91.12 1.52 98.64 4.56
C 106.32 7.44 113.92 12 121.44 18.24
L 108 32.16
C 102.08 27.36 96.4 23.92 90.96 21.84
C 85.52 19.76 79.12 18.72 71.76 18.72
C 63.28 18.72 55.44 21.04 48.24 25.68
C 41.2 30.16 35.44 37.44 30.96 47.52
C 26.48 57.44 24.24 70.08 24.24 85.44
C 24.24 108.64 28 125.6 35.52 136.32
C 43.2 147.04 54.48 152.4 69.36 152.4
C 81.68 152.4 92.16 149.84 100.8 144.72
L 100.8 95.04
L 71.52 95.04
L 68.88 76.56
L 123.36 76.56
L 123.36 156.48
C 115.36 161.28 106.8 164.96 97.68 167.52
C 88.72 169.92 78.72 171.12 67.68 171.12
C 46.72 171.12 30.16 163.84 18 149.28
C 6 134.72 0 113.44 0 85.44
C 0 67.52 3.28 52.16 9.84 39.36
C 16.4 26.4 25.12 16.64 36 10.08
C 46.88 3.36 58.64 0 71.28 0
Z"/>
<path id="path2_fill" d="
M 22.8 145.44
L 90.72 145.44
L 88.08 165.36
L 0 165.36
L 0 0
L 22.8 0
L 22.8 145.44
Z"/>
<path id="path3_fill" d="
M 58.8 0
C 69.84 0 79.28 1.6 87.12 4.8
C 94.96 7.84 102.56 12.64 109.92 19.2
L 97.44 33.12
C 91.2 28.16 85.04 24.56 78.96 22.32
C 73.04 19.92 66.64 18.72 59.76 18.72
C 51.12 18.72 44 20.72 38.4 24.72
C 32.8 28.72 30 34.56 30 42.24
C 30 47.04 30.96 51.12 32.88 54.48
C 34.8 57.68 38.32 60.64 43.44 63.36
C 48.72 66.08 56.32 68.96 66.24 72
C 76.64 75.2 85.28 78.64 92.16 82.32
C 99.04 86 104.56 91.12 108.72 97.68
C 113.04 104.08 115.2 112.24 115.2 122.16
C 115.2 131.76 112.8 140.24 108 147.6
C 103.36 154.96 96.56 160.72 87.6 164.88
C 78.8 169.04 68.32 171.12 56.16 171.12
C 33.28 171.12 14.56 164 0 149.76
L 12.72 135.6
C 19.28 141.2 26 145.44 32.88 148.32
C 39.76 151.04 47.44 152.4 55.92 152.4
C 66.16 152.4 74.64 149.92 81.36 144.96
C 88.08 139.84 91.44 132.48 91.44 122.88
C 91.44 117.44 90.4 112.96 88.32 109.44
C 86.24 105.76 82.64 102.48 77.52 99.6
C 72.56 96.72 65.28 93.84 55.68 90.96
C 38.72 85.84 26.32 79.68 18.48 72.48
C 10.64 65.28 6.72 55.52 6.72 43.2
C 6.72 34.88 8.88 27.44 13.2 20.88
C 17.68 14.32 23.84 9.2 31.68 5.52
C 39.68 1.84 48.72 0 58.8 0
Z"/>
<path id="path4_fill" d="
M 76.32 101.76
L 76.32 165.36
L 53.28 165.36
L 53.28 102
L 0 0
L 25.2 0
L 65.52 81.84
L 105.84 0
L 129.6 0
L 76.32 101.76
Z"/>
</defs>
</svg>
