<svg width="220.5" height="45" viewBox="0 0 220.5 45" version="2.0" xmlns="http://www.w3.org/2000/svg" xmlns:xlink="http://www.w3.org/1999/xlink" xmlns:figma="http://www.figma.com/figma/ns">
<title>GLASSY</title>
<desc>Created using Figma (9000)</desc>
<g id="Canvas" transform="matrix(0.225 0 0 0.225 -424.575 -771.3)" figma:type="canvas">
<g id="GLASSY" style="mix-blend-mode:normal;" figma:type="vector">
<use xlink:href="#path0_fill" transform="translate(1887.07 3428.78)" fill="#FFFFFF" style="mix-blend-mode:normal;"/>
</g>
</g>
<defs>
<path id="path0_fill" d="
M 115.2 111.168
L 94.176 111.168
L 94.176 106.56
L 166.176 106.56
L 166.176 111.168
L 145.152 111.168
L 145.152 190.656
C 141.504 189.312 137.088 188.64 131.904 188.64
C 126.72 188.64 118.464 190.272 107.136 193.536
C 96 196.992 86.208 198.72 77.76 198.72
C 53.184 198.72 34.08 189.024 20.448 169.632
C 6.816 150.048 0 126.624 0 99.36
C 0 71.904 7.104 48.48 21.312 29.088
C 35.712 9.696 55.008 0 79.2 0
C 87.84 0 97.536 1.632 108.288 4.896
C 119.04 8.16 125.28 9.792 127.008 9.792
C 132.576 9.792 135.84 6.528 136.8 0
L 140.256 0
L 140.256 63.072
L 135.648 63.072
C 132.768 45.6 126.912 31.68 118.08 21.312
C 109.248 10.752 97.152 5.472 81.792 5.472
C 63.552 5.472 51.072 13.248 44.352 28.8
C 38.784 42.048 35.712 59.52 35.136 81.216
C 35.136 86.208 35.136 93.792 35.136 103.968
C 35.136 114.144 35.712 123.936 36.864 133.344
C 38.016 142.752 40.128 152.256 43.2 161.856
C 46.272 171.456 51.168 178.944 57.888 184.32
C 64.608 189.504 73.248 192.096 83.808 192.096
C 94.368 192.096 104.832 189.888 115.2 185.472
L 115.2 111.168
Z
M 185.792 192.96
L 185.792 188.352
L 206.816 188.352
L 206.816 10.368
L 185.792 10.368
L 185.792 5.76
L 263.552 5.76
L 263.552 10.368
L 236.768 10.368
L 236.768 188.352
L 251.456 188.352
C 266.048 188.352 277.28 187.68 285.152 186.336
C 293.024 184.8 299.456 181.344 304.448 175.968
C 309.44 170.592 312.704 164.064 314.24 156.384
C 315.968 148.704 317.216 137.376 317.984 122.4
L 322.592 122.4
L 319.712 192.96
L 185.792 192.96
Z
M 375.584 150.336
C 373.472 156.096 372.416 161.76 372.416 167.328
C 372.416 172.704 373.376 176.832 375.296 179.712
C 377.408 182.592 380.672 184.608 385.088 185.76
C 391.808 187.488 400.736 188.352 411.872 188.352
L 416.768 188.352
L 416.768 192.96
L 331.52 192.96
L 331.52 188.352
C 341.696 188.352 349.376 185.568 354.56 180
C 359.936 174.24 364.64 165.312 368.672 153.216
L 415.616 17.568
C 416.96 13.344 418.208 10.176 419.36 8.064
C 422.048 2.688 426.464 0 432.608 0
L 433.472 0
L 491.648 188.352
L 512.096 188.352
L 512.096 192.96
L 438.368 192.96
L 438.368 188.352
L 459.68 188.352
L 439.808 123.264
L 384.8 123.264
L 375.584 150.336
Z
M 413.024 41.472
L 386.528 118.656
L 438.368 118.656
L 414.752 41.472
L 413.024 41.472
Z
M 589.28 193.248
C 601.184 193.248 610.592 189.696 617.504 182.592
C 624.416 175.488 627.872 166.56 627.872 155.808
C 627.872 144.864 624.416 136.128 617.504 129.6
C 610.592 123.072 602.24 117.888 592.448 114.048
C 582.656 110.016 572.864 105.792 563.072 101.376
C 553.28 96.96 544.928 90.624 538.016 82.368
C 531.104 74.112 527.648 63.936 527.648 51.84
C 527.648 35.52 532.448 22.848 542.048 13.824
C 551.648 4.608 564.704 0 581.216 0
C 589.856 0 599.552 1.632 610.304 4.896
C 621.056 8.16 627.296 9.792 629.024 9.792
C 634.592 9.792 637.856 6.528 638.816 0
L 642.272 0
L 642.272 63.072
L 637.664 63.072
C 634.784 45.6 628.928 31.68 620.096 21.312
C 611.264 10.752 599.168 5.472 583.808 5.472
C 573.44 5.472 565.088 8.544 558.752 14.688
C 552.608 20.64 549.536 28.704 549.536 38.88
C 549.536 48.864 552.992 57.12 559.904 63.648
C 566.816 70.176 575.168 75.456 584.96 79.488
C 594.752 83.328 604.544 87.456 614.336 91.872
C 624.128 96.288 632.48 102.624 639.392 110.88
C 646.304 119.136 649.76 129.312 649.76 141.408
C 649.76 158.496 643.712 172.32 631.616 182.88
C 619.52 193.44 604.448 198.72 586.4 198.72
C 577.568 198.72 568.16 197.088 558.176 193.824
C 548.384 190.56 542.624 188.928 540.896 188.928
C 535.328 188.928 532.064 192.192 531.104 198.72
L 527.648 198.72
L 524.768 128.16
L 529.376 128.16
C 535.136 171.552 555.104 193.248 589.28 193.248
Z
M 734.432 193.248
C 746.336 193.248 755.744 189.696 762.656 182.592
C 769.568 175.488 773.024 166.56 773.024 155.808
C 773.024 144.864 769.568 136.128 762.656 129.6
C 755.744 123.072 747.392 117.888 737.6 114.048
C 727.808 110.016 718.016 105.792 708.224 101.376
C 698.432 96.96 690.08 90.624 683.168 82.368
C 676.256 74.112 672.8 63.936 672.8 51.84
C 672.8 35.52 677.6 22.848 687.2 13.824
C 696.8 4.608 709.856 0 726.368 0
C 735.008 0 744.704 1.632 755.456 4.896
C 766.208 8.16 772.448 9.792 774.176 9.792
C 779.744 9.792 783.008 6.528 783.968 0
L 787.424 0
L 787.424 63.072
L 782.816 63.072
C 779.936 45.6 774.08 31.68 765.248 21.312
C 756.416 10.752 744.32 5.472 728.96 5.472
C 718.592 5.472 710.24 8.544 703.904 14.688
C 697.76 20.64 694.688 28.704 694.688 38.88
C 694.688 48.864 698.144 57.12 705.056 63.648
C 711.968 70.176 720.32 75.456 730.112 79.488
C 739.904 83.328 749.696 87.456 759.488 91.872
C 769.28 96.288 777.632 102.624 784.544 110.88
C 791.456 119.136 794.912 129.312 794.912 141.408
C 794.912 158.496 788.864 172.32 776.768 182.88
C 764.672 193.44 749.6 198.72 731.552 198.72
C 722.72 198.72 713.312 197.088 703.328 193.824
C 693.536 190.56 687.776 188.928 686.048 188.928
C 680.48 188.928 677.216 192.192 676.256 198.72
L 672.8 198.72
L 669.92 128.16
L 674.528 128.16
C 680.288 171.552 700.256 193.248 734.432 193.248
Z
M 978.96 6.048
L 978.96 10.656
C 969.936 11.04 962.352 12.96 956.208 16.416
C 950.064 19.68 944.784 25.632 940.368 34.272
L 905.52 103.392
L 905.52 188.352
L 929.424 188.352
L 929.424 192.96
L 854.544 192.96
L 854.544 188.352
L 875.568 188.352
L 875.568 106.272
L 824.016 10.368
L 802.992 10.368
L 802.992 5.76
L 880.176 5.76
L 880.176 10.368
L 856.272 10.368
L 902.352 97.632
L 926.544 50.688
C 931.536 40.704 934.032 32.64 934.032 26.496
C 934.032 20.352 931.632 16.224 926.832 14.112
C 922.224 11.808 915.408 10.656 906.384 10.656
L 904.08 10.656
L 904.08 6.048
L 978.96 6.048
Z"/>
</defs>
</svg>
